<?xml version="1.0" encoding="UTF-8" standalone="no"?> <svg width="24" height="24" viewBox="0 0 64 64" fill="none" xmlns="http://www.w3.org/2000/svg">
<path d="M32 43C43.0457 43 52 34.0457 52 23C52 11.9543 43.0457 3 32 3C20.9543 3 12 11.9543 12 23C12 34.0457 20.9543 43 32 43Z" fill="#A3DAFF"/>
<path d="M51.79 25.92C51.2417 29.6343 49.659 33.1192 47.223 35.9761C44.7869 38.833 41.5959 40.9465 38.0149 42.0748C34.4339 43.2032 30.6077 43.3007 26.9739 42.3564C23.3401 41.412 20.0455 39.4639 17.467 36.7348C14.8885 34.0058 13.1302 30.606 12.3934 26.9245C11.6565 23.243 11.9708 19.4285 13.3003 15.9172C14.6298 12.406 16.9208 9.3399 19.9112 7.0697C22.9016 4.79949 26.4707 3.41687 30.21 3.08002C29.7951 5.92211 29.9964 8.82019 30.8002 11.5776C31.604 14.3351 32.9915 16.8874 34.8686 19.0614C36.7457 21.2353 39.0684 22.9801 41.6792 24.1773C44.29 25.3745 47.1278 25.9962 50 26C50.6 26 51.2 25.97 51.79 25.92Z" fill="#1EC0FF"/>
<path d="M28 15L26 21V39L23.08 40.9C19.8633 39.2962 17.1382 36.8552 15.1914 33.8338C13.2447 30.8123 12.1481 27.322 12.0171 23.7301C11.8861 20.1381 12.7255 16.5773 14.4471 13.422C16.1686 10.2668 18.7087 7.63378 21.8 5.79999L26 9.99999L24 13L28 15Z" fill="#8FBC94"/>
<path d="M52 23C52.0023 27.2226 50.6672 31.3375 48.1862 34.7545C45.7052 38.1714 42.2059 40.7149 38.19 42.02L41 35L36 32L41 29L44 25L39 17L40 12L35 9.00001L39.16 4.32001C42.9389 5.76889 46.1893 8.33013 48.4819 11.6654C50.7744 15.0006 52.0011 18.9529 52 23V23Z" fill="#A8D38C"/>
<path d="M35.2 3.26L32 6L29 7L27.51 3.52C28.9816 3.17377 30.4883 2.99927 32 3C33.0719 3.00006 34.1421 3.08701 35.2 3.26V3.26Z" fill="#A8D38C"/>
<path d="M35 48H29V55H35V48Z" fill="#1EC0FF"/>
<path d="M23 55H41C41.7956 55 42.5587 55.3161 43.1213 55.8787C43.6839 56.4413 44 57.2044 44 58V61H20V58C20 57.2044 20.3161 56.4413 20.8787 55.8787C21.4413 55.3161 22.2044 55 23 55Z" fill="#1EC0FF"/>
<path d="M51.79 25.92C51.2454 29.6032 49.684 33.0613 47.2814 35.9056C44.8788 38.7498 41.7303 40.8674 38.19 42.02L41 35L36 32L41 29L43.95 25.07C45.9075 25.6863 47.9477 26 50 26C50.6 26 51.2 25.97 51.79 25.92Z" fill="#8FBC94"/>
<path d="M30 6C30 6.22 30 6.44 30.02 6.66L29 7L27.51 3.52C28.3982 3.31036 29.3006 3.16663 30.21 3.09C30.069 4.05357 29.9988 5.02617 30 6V6Z" fill="#8FBC94"/>
<path d="M44 58V61H20V58C20 57.2044 20.3161 56.4413 20.8787 55.8787C21.4413 55.3161 22.2044 55 23 55C23 55.7956 23.3161 56.5587 23.8787 57.1213C24.4413 57.6839 25.2044 58 26 58H44Z" fill="#299CFC"/>
<path d="M35 52V55H29V48H32V50C32.0016 50.5299 32.2128 51.0377 32.5875 51.4125C32.9623 51.7872 33.4701 51.9984 34 52H35Z" fill="#299CFC"/>
<path d="M3.83802 52.162C4.1118 52.4356 4.43828 52.6509 4.79769 52.7946C5.1571 52.9384 5.54195 53.0077 5.92893 52.9983C6.31591 52.989 6.69697 52.9012 7.04901 52.7402C7.40106 52.5793 7.71677 52.3485 7.97702 52.062L20.1 38.727L17.273 35.9L3.93602 48.023C3.6496 48.2834 3.41901 48.5992 3.25824 48.9513C3.09746 49.3034 3.00984 49.6845 3.00068 50.0715C2.99152 50.4585 3.06101 50.8433 3.20493 51.2026C3.34886 51.562 3.56424 51.8883 3.83802 52.162V52.162Z" fill="#FF6464"/>
<path d="M20.1 38.73L7.98002 52.06C7.48043 52.6101 6.78636 52.9441 6.04479 52.9914C5.30321 53.0386 4.57235 52.7954 4.00697 52.3132C3.44159 51.831 3.08609 51.1477 3.01573 50.408C2.94537 49.6682 3.16568 48.9301 3.63002 48.35C3.70002 48.43 3.77002 48.51 3.84002 48.58C4.1141 48.8533 4.44073 49.0682 4.80019 49.2117C5.15964 49.3552 5.54446 49.4244 5.9314 49.4151C6.31833 49.4057 6.69936 49.3181 7.05147 49.1573C7.40357 48.9966 7.71945 48.7662 7.98002 48.48L15.95 39.71C15.4401 39.34 14.9588 38.9322 14.51 38.49L14.47 38.45L17.27 35.9L20.1 38.73Z" fill="#DB3056"/>
<path d="M25.758 42.242C32.3854 42.242 37.758 36.8694 37.758 30.242C37.758 23.6146 32.3854 18.242 25.758 18.242C19.1306 18.242 13.758 23.6146 13.758 30.242C13.758 36.8694 19.1306 42.242 25.758 42.242Z" fill="#FF8B7B"/>
<path d="M37.02 34.39C36.3549 36.1975 35.2645 37.8183 33.841 39.1155C32.4174 40.4128 30.7026 41.3483 28.8413 41.8431C26.98 42.3379 25.0269 42.3775 23.1471 41.9584C21.2673 41.5393 19.516 40.6739 18.0411 39.4353C16.5662 38.1968 15.4111 36.6214 14.6734 34.8423C13.9357 33.0632 13.6371 31.1327 13.8027 29.2139C13.9684 27.2951 14.5934 25.4443 15.6251 23.818C16.6568 22.1916 18.0647 20.8375 19.73 19.87C18.8774 22.1871 18.7602 24.7109 19.3945 27.097C20.0289 29.4832 21.3838 31.6156 23.2746 33.2035C25.1653 34.7913 27.4998 35.7573 29.9597 35.9696C32.4196 36.1819 34.8851 35.6303 37.02 34.39V34.39Z" fill="#FF6464"/>
<path d="M25.758 38.242C30.1763 38.242 33.758 34.6603 33.758 30.242C33.758 25.8237 30.1763 22.242 25.758 22.242C21.3397 22.242 17.758 25.8237 17.758 30.242C17.758 34.6603 21.3397 38.242 25.758 38.242Z" fill="#1EC0FF"/>
<path d="M31.42 35.9C30.0146 37.323 28.1271 38.168 26.1296 38.2684C24.132 38.3688 22.1693 37.7173 20.6283 36.4423C19.0873 35.1673 18.0798 33.3614 17.8043 31.3804C17.5288 29.3994 18.0054 27.3871 19.14 25.74C19.5456 28.5792 20.9587 31.1778 23.1214 33.0614C25.2841 34.945 28.0521 35.988 30.92 36C31.8416 34.4135 32.1889 32.5581 31.9034 30.7457C31.6178 28.9333 30.717 27.2745 29.3522 26.0482C27.9875 24.8219 26.2421 24.103 24.4096 24.0122C22.5771 23.9215 20.7692 24.4645 19.29 25.55C19.5289 25.202 19.8001 24.8772 20.1 24.58C21.6011 23.0789 23.6371 22.2356 25.76 22.2356C27.8829 22.2356 29.9189 23.0789 31.42 24.58C32.9211 26.0811 33.7645 28.1171 33.7645 30.24C33.7645 32.3629 32.9211 34.3989 31.42 35.9V35.9Z" fill="#299CFC"/>
<path d="M24 29L27 33L23.42 37.89C22.1659 37.5113 21.0252 36.8275 20.1 35.9C19.0506 34.8552 18.3124 33.5392 17.9677 32.099C17.623 30.6589 17.6855 29.1513 18.1482 27.7446C18.6109 26.3379 19.4555 25.0875 20.5878 24.1331C21.72 23.1787 23.0953 22.5579 24.56 22.34L27 26L24 29Z" fill="#A8D38C"/>
<path d="M22.51 32.49C23.4409 33.4245 24.5227 34.1953 25.71 34.77L23.42 37.89C22.1659 37.5113 21.0252 36.8275 20.1 35.9C18.7844 34.5818 17.9689 32.8466 17.7938 30.9926C17.6186 29.1385 18.0946 27.2812 19.14 25.74C19.5076 28.294 20.6895 30.6613 22.51 32.49V32.49Z" fill="#8FBC94"/>
<path d="M19.29 25.55C19.5289 25.2019 19.8001 24.8772 20.1 24.58C21.3071 23.3731 22.8711 22.5876 24.56 22.34L25.81 24.22C24.6916 23.9581 23.5298 23.9413 22.4043 24.1709C21.2789 24.4005 20.2164 24.871 19.29 25.55V25.55Z" fill="#8FBC94"/>
<path d="M50.385 41.385C55.2535 36.505 57.9876 29.8932 57.9876 23C57.9876 16.1068 55.2535 9.49499 50.385 4.61501C50.1975 4.42754 49.9432 4.32222 49.678 4.32222C49.4128 4.32222 49.1585 4.42754 48.971 4.61501L46.1 7.48401C43.9891 5.55411 41.5051 4.0773 38.8013 3.14474C36.0975 2.21217 33.2312 1.84364 30.3794 2.06188C27.5277 2.28012 24.7509 3.08052 22.2204 4.41365C19.69 5.74679 17.4596 7.58438 15.667 9.81301C15.5003 10.0193 15.4224 10.2835 15.4505 10.5472C15.4785 10.811 15.6102 11.0528 15.8165 11.2195C16.0228 11.3862 16.2869 11.4641 16.5507 11.4361C16.8145 11.408 17.0563 11.2763 17.223 11.07C18.4821 9.51273 19.978 8.16294 21.656 7.07001L24.713 10.127L23.168 12.445C23.0892 12.563 23.0364 12.6965 23.0132 12.8365C22.9899 12.9764 22.9967 13.1198 23.0331 13.2569C23.0696 13.3941 23.1348 13.5219 23.2244 13.6319C23.314 13.7419 23.426 13.8316 23.553 13.895L26.777 15.506L26.194 17.254C23.3398 17.157 20.5332 18.0025 18.2075 19.6599C15.8819 21.3173 14.1667 23.6944 13.327 26.424C13.1097 25.2956 13.0002 24.1491 13 23C12.995 19.9532 13.7312 16.9509 15.145 14.252C15.259 14.0177 15.277 13.7481 15.1951 13.5006C15.1133 13.2532 14.9381 13.0475 14.7069 12.9273C14.4756 12.8072 14.2066 12.782 13.9571 12.8572C13.7076 12.9324 13.4973 13.1021 13.371 13.33C11.9124 16.1213 11.105 19.2068 11.0096 22.3548C10.9142 25.5028 11.5331 28.6315 12.82 31.506C13.0065 33.4332 13.6263 35.2932 14.633 36.947L10.552 40.657C10.4549 40.7455 10.3762 40.8523 10.3203 40.9712C10.2645 41.0902 10.2326 41.2189 10.2265 41.3502C10.2142 41.6153 10.3077 41.8744 10.4865 42.0705C10.575 42.1676 10.6818 42.2464 10.8007 42.3022C10.9197 42.358 11.0484 42.3899 11.1797 42.396C11.4448 42.4083 11.7039 42.3148 11.9 42.136L15.8 38.589C16.043 38.879 16.3 39.163 16.566 39.434C16.832 39.705 17.121 39.957 17.41 40.2L7.23701 51.391C7.06824 51.578 6.86302 51.7285 6.63395 51.8332C6.40489 51.9379 6.15682 51.9947 5.90501 52C5.65353 52.0037 5.40382 51.9574 5.17036 51.8639C4.9369 51.7703 4.72434 51.6313 4.54501 51.455C4.36681 51.2771 4.22662 51.0648 4.13294 50.8311C4.03926 50.5974 3.99404 50.347 4.00002 50.0953C4.006 49.8436 4.06307 49.5957 4.16775 49.3666C4.27244 49.1376 4.42256 48.9323 4.60901 48.763L8.93501 44.83C9.12671 44.6504 9.24003 44.4026 9.25048 44.1401C9.26093 43.8776 9.16766 43.6215 8.99085 43.4272C8.81403 43.2329 8.56786 43.116 8.30555 43.1018C8.04323 43.0875 7.78584 43.177 7.58901 43.351L3.26401 47.283C2.68797 47.807 2.28387 48.493 2.10473 49.2509C1.9256 50.0087 1.97981 50.803 2.26026 51.5295C2.54071 52.256 3.03428 52.8807 3.67617 53.3216C4.31806 53.7625 5.07828 53.999 5.85701 54H5.95201C6.47471 53.9895 6.9897 53.872 7.46525 53.6547C7.94079 53.4375 8.3668 53.1252 8.71701 52.737L16.669 43.99C20.0141 46.4389 23.9014 48.0431 28 48.666V54H23C21.9391 54 20.9217 54.4214 20.1716 55.1716C19.4214 55.9217 19 56.9391 19 58V61C19 61.2652 19.1054 61.5196 19.2929 61.7071C19.4804 61.8947 19.7348 62 20 62H35C35.2652 62 35.5196 61.8947 35.7071 61.7071C35.8947 61.5196 36 61.2652 36 61C36 60.7348 35.8947 60.4804 35.7071 60.2929C35.5196 60.1054 35.2652 60 35 60H21V58C21 57.4696 21.2107 56.9609 21.5858 56.5858C21.9609 56.2107 22.4696 56 23 56H41C41.5304 56 42.0391 56.2107 42.4142 56.5858C42.7893 56.9609 43 57.4696 43 58V60H39C38.7348 60 38.4804 60.1054 38.2929 60.2929C38.1054 60.4804 38 60.7348 38 61C38 61.2652 38.1054 61.5196 38.2929 61.7071C38.4804 61.8947 38.7348 62 39 62H44C44.2652 62 44.5196 61.8947 44.7071 61.7071C44.8947 61.5196 45 61.2652 45 61V58C45 56.9391 44.5786 55.9217 43.8284 55.1716C43.0783 54.4214 42.0609 54 41 54H36V48.654C41.4457 47.8214 46.4844 45.2753 50.385 41.385V41.385ZM32.754 4.03801L31.5 5.11301L29.559 5.76001L28.914 4.25301C29.9341 4.08513 30.9662 4.00052 32 4.00001C32.254 4.00001 32.5 4.02801 32.754 4.03801ZM17.98 22.463C19.8141 20.6206 22.2436 19.4904 24.8343 19.2744C27.425 19.0584 30.0081 19.7707 32.122 21.284C32.2289 21.3623 32.3502 21.4186 32.479 21.4497C32.6078 21.4807 32.7415 21.4858 32.8723 21.4648C33.0031 21.4437 33.1284 21.3969 33.2409 21.3269C33.3534 21.257 33.451 21.1655 33.5278 21.0576C33.6046 20.9496 33.6593 20.8275 33.6885 20.6983C33.7178 20.5691 33.7211 20.4354 33.6982 20.3049C33.6753 20.1744 33.6268 20.0497 33.5553 19.9382C33.4839 19.8266 33.391 19.7304 33.282 19.655C31.7713 18.5787 30.0477 17.8381 28.227 17.483L28.949 15.316C29.0253 15.0878 29.0168 14.8397 28.9249 14.6172C28.8331 14.3948 28.6641 14.2129 28.449 14.105L25.46 12.612L26.832 10.555C26.9603 10.3626 27.0179 10.1318 26.9951 9.90166C26.9723 9.67157 26.8705 9.45648 26.707 9.29301L23.451 6.03601C24.5611 5.47425 25.7241 5.02372 26.923 4.69101L28.081 7.39101C28.1576 7.57141 28.2856 7.72532 28.449 7.83359C28.6124 7.94187 28.804 7.99974 29 8.00001C29.1074 7.99968 29.214 7.98247 29.316 7.94901L32.316 6.94901C32.4385 6.90816 32.5519 6.84398 32.65 6.76001L35.483 4.33401C36.1298 4.45381 36.77 4.60702 37.401 4.79301L34.252 8.33501C34.1543 8.44489 34.0821 8.57497 34.0404 8.71597C33.9987 8.85697 33.9886 9.00542 34.0109 9.15076C34.0331 9.29609 34.0872 9.43474 34.1691 9.55681C34.2511 9.67888 34.3589 9.78138 34.485 9.85701L38.885 12.495L38.02 16.8C37.9698 17.05 38.0171 17.3097 38.152 17.526L41.152 22.326C41.2926 22.5514 41.5169 22.7118 41.7757 22.7718C42.0345 22.8318 42.3066 22.7866 42.532 22.646C42.7574 22.5054 42.9178 22.2811 42.9778 22.0223C43.0378 21.7635 42.9926 21.4914 42.852 21.266L40.063 16.803L40.98 12.2C41.0204 11.998 40.9974 11.7884 40.9142 11.5999C40.831 11.4114 40.6916 11.2532 40.515 11.147L36.549 8.76701L39.434 5.52101C42.8171 6.95594 45.7108 9.34212 47.764 12.3899C49.8171 15.4376 50.9414 19.0158 51.0003 22.6901C51.0591 26.3645 50.0501 29.9769 48.0956 33.0888C46.1412 36.2008 43.3254 38.6784 39.99 40.221L41.928 35.378C42.0164 35.1575 42.0233 34.9127 41.9477 34.6875C41.872 34.4623 41.7186 34.2714 41.515 34.149L38.586 32.392C38.633 32.115 38.664 31.836 38.693 31.557L41.515 29.863C41.6263 29.7948 41.7231 29.7054 41.8 29.6L44.8 25.6C44.9591 25.3878 45.0275 25.1211 44.99 24.8586C44.9524 24.596 44.8122 24.3591 44.6 24.2C44.3878 24.0409 44.1211 23.9726 43.8586 24.0101C43.596 24.0476 43.3591 24.1878 43.2 24.4L40.317 28.243L38.717 29.203C38.5265 26.8666 37.7065 24.6255 36.344 22.718C36.2687 22.609 36.1724 22.5161 36.0608 22.4447C35.9493 22.3732 35.8246 22.3247 35.6941 22.3018C35.5636 22.2789 35.4299 22.2822 35.3007 22.3115C35.1715 22.3407 35.0494 22.3954 34.9415 22.4722C34.8335 22.5491 34.742 22.6466 34.6721 22.7591C34.6022 22.8717 34.5553 22.997 34.5342 23.1278C34.5132 23.2585 34.5183 23.3922 34.5493 23.521C34.5804 23.6498 34.6367 23.7712 34.715 23.878C35.9274 25.587 36.6261 27.607 36.7287 29.6999C36.8313 31.7928 36.3336 33.8715 35.2941 35.6909C34.2546 37.5103 32.7168 38.9947 30.8617 39.9692C29.0067 40.9437 26.9118 41.3676 24.8238 41.1911C22.7358 41.0145 20.7418 40.2448 19.0767 38.9727C17.4117 37.7006 16.1449 35.9791 15.4257 34.0109C14.7065 32.0428 14.5648 29.9101 15.0173 27.8641C15.4699 25.8182 16.4978 23.9442 17.98 22.463V22.463ZM38.073 34.41L39.755 35.419L37.443 41.2C35.6773 41.7302 33.8436 41.9998 32 42C31.778 42 31.556 41.984 31.333 41.976C32.9077 41.2332 34.3163 40.1803 35.4744 38.8802C36.6326 37.5802 37.5164 36.0597 38.073 34.41ZM19.053 41.367C21.0725 42.5938 23.3901 43.2424 25.753 43.242C25.953 43.242 26.153 43.221 26.36 43.212C30.745 44.4459 35.4127 44.2178 39.6564 42.562C43.9002 40.9063 47.4891 37.9132 49.8799 34.0357C52.2707 30.1582 53.3332 25.6073 52.9067 21.072C52.4802 16.5367 50.5878 12.2638 47.516 8.90001L49.663 6.75301C53.6887 11.122 55.9503 16.8293 56.0099 22.7699C56.0695 28.7106 53.9229 34.462 49.9857 38.9109C46.0484 43.3598 40.6005 46.1897 34.6967 46.8527C28.7929 47.5158 22.853 45.9648 18.027 42.5L19.053 41.367ZM34 54H30V48.894C30.652 48.943 31.306 48.97 31.959 48.97C32.64 48.97 33.321 48.937 34 48.884V54Z" fill="#464A51"/>
<path d="M25.758 39.242C27.8404 39.2448 29.8592 38.5254 31.4706 37.2064C33.082 35.8874 34.1861 34.0505 34.5948 32.0087C35.0036 29.9668 34.6917 27.8464 33.7122 26.0088C32.7328 24.1712 31.1464 22.73 29.2235 21.931C27.3006 21.1319 25.16 21.0244 23.1667 21.6267C21.1734 22.229 19.4506 23.5039 18.2919 25.2341C17.1332 26.9643 16.6104 29.0428 16.8124 31.1153C17.0145 33.1879 17.929 35.1262 19.4 36.6C20.2325 37.4388 21.2231 38.1043 22.3144 38.5578C23.4058 39.0113 24.5762 39.2438 25.758 39.242ZM30.708 35.191C30.0597 35.8434 29.2883 36.3606 28.4386 36.7126C27.5889 37.0647 26.6778 37.2446 25.758 37.242C25.558 37.242 25.358 37.229 25.158 37.212L27.81 33.591C27.9363 33.4176 28.0035 33.2083 28.0017 32.9938C27.9999 32.7794 27.9292 32.5712 27.8 32.4L25.32 29.094L27.707 26.707C27.8705 26.5435 27.9724 26.3284 27.9952 26.0983C28.0179 25.8683 27.9603 25.6374 27.832 25.445L26.385 23.275C27.7108 23.3927 28.9755 23.8863 30.0306 24.6979C31.0856 25.5094 31.8872 26.6051 32.3411 27.8564C32.7951 29.1076 32.8825 30.4624 32.5932 31.7616C32.304 33.0609 31.6499 34.2506 30.708 35.191V35.191ZM20.808 25.291C21.7141 24.3859 22.8527 23.7488 24.098 23.45L25.712 25.872L23.292 28.292C23.1217 28.4624 23.0186 28.6885 23.0017 28.9288C22.9848 29.1691 23.0552 29.4075 23.2 29.6L25.755 33.007L23.055 36.7C21.9953 36.256 21.0611 35.558 20.3349 34.6675C19.6088 33.7771 19.113 32.7216 18.8913 31.5941C18.6697 30.4667 18.7289 29.3021 19.0639 28.203C19.3989 27.1039 19.9992 26.1041 20.812 25.292L20.808 25.291Z" fill="#464A51"/>
</svg>
